<svg width="25" height="24" viewBox="0 0 25 24" fill="none" xmlns="http://www.w3.org/2000/svg">
<path d="M22.8769 6.20555C22.7827 6.04932 22.6249 5.92408 22.4051 5.81985C22.1839 5.71619 21.8802 5.66381 21.4802 5.66381H6.91549L6.78842 4.87206L6.70415 4.25704C6.6734 4.05925 6.65287 3.90302 6.62027 3.78854L6.51549 3.43397C6.47337 3.29863 6.40085 3.16326 6.30633 3.03821C6.20087 2.91292 6.06424 2.8091 5.89611 2.72575C5.72798 2.64243 5.49721 2.60068 5.21332 2.60068H3.06058C2.73568 2.60068 2.48296 2.69426 2.28404 2.87138C2.09464 3.04884 2.00017 3.27779 2.00017 3.55912C2.00017 3.69446 2.02178 3.85124 2.05255 4.01754C2.08406 4.18437 2.15697 4.3406 2.24118 4.48657C2.33534 4.63253 2.45253 4.75727 2.59796 4.86148C2.73568 4.96588 2.91409 5.01771 3.12287 5.01771H4.7199L5.64371 9.70632L5.98034 11.4878L6.28474 13.0921L6.52578 14.2906L6.64188 14.8944C6.68362 15.103 6.74734 15.3219 6.82025 15.5614C6.90412 15.801 6.99864 16.0199 7.13489 16.2177C7.26093 16.4157 7.41915 16.5825 7.60778 16.7076C7.79754 16.8327 8.03855 16.8954 8.32242 16.8954H19.4744C19.8744 16.8954 20.1469 16.7909 20.2721 16.5931C20.4095 16.3952 20.4835 16.1552 20.4835 15.8743C20.4835 15.3008 20.1366 15.0195 19.4535 15.0195H8.73159L8.40673 13.1443H19.5901C19.9993 13.1443 20.3461 13.04 20.63 12.8215C20.9132 12.603 21.1436 12.2175 21.3333 11.6655C21.4175 11.4048 21.5439 11.0402 21.7007 10.5817L22.2051 9.19587L22.6563 7.91437L22.9303 7.14332C22.9714 7.0186 22.993 6.87264 23.0029 6.69554C23.0135 6.51785 22.9714 6.36178 22.8769 6.20555ZM9.12684 17.6037C8.09096 17.6037 7.25138 18.4432 7.25138 19.4791C7.25138 20.5148 8.09096 21.3547 9.12684 21.3547C10.1627 21.3547 11.0023 20.5148 11.0023 19.4791C11.0023 18.4432 10.1627 17.6037 9.12684 17.6037ZM18.129 17.6037C17.0931 17.6037 16.2535 18.4432 16.2535 19.4791C16.2535 20.5148 17.0931 21.3547 18.129 21.3547C19.1648 21.3547 20.0044 20.5148 20.0044 19.4791C20.0044 18.4432 19.1648 17.6037 18.129 17.6037Z" fill="white"/>
</svg>
